<svg width="30" height="30" viewBox="0 0 30 30" fill="none" xmlns="http://www.w3.org/2000/svg">
<path d="M15 26.875C12.2292 26.875 9.86958 25.9113 7.92125 23.9837C5.97292 22.0562 4.99917 19.7283 5 17C5 15.625 5.25542 14.3492 5.76625 13.1725C6.27708 11.9958 7.00083 10.9592 7.9375 10.0625L15 3.125L22.0625 10.0625C23 10.9583 23.7242 11.995 24.235 13.1725C24.7458 14.35 25.0008 15.6258 25 17C25 19.7292 24.0263 22.0575 22.0788 23.985C20.1313 25.9125 17.7717 26.8758 15 26.875ZM15 24.375C17.0833 24.375 18.8542 23.6508 20.3125 22.2025C21.7708 20.7542 22.5 19.02 22.5 17C22.5 16 22.3175 15.0679 21.9525 14.2037C21.5875 13.3396 21.0408 12.5633 20.3125 11.875L15 6.625L9.6875 11.875C8.95833 12.5625 8.41125 13.3387 8.04625 14.2037C7.68125 15.0687 7.49917 16.0008 7.5 17C7.5 19.0208 8.22917 20.7554 9.6875 22.2038C11.1458 23.6521 12.9167 24.3758 15 24.375Z" fill="black"/>
</svg>
