<svg width="30" height="30" viewBox="0 0 30 30" fill="none" xmlns="http://www.w3.org/2000/svg">
<path d="M8.74375 15C8.74375 18.4513 11.5512 21.2588 15.0025 21.2588C18.4537 21.2588 21.2613 18.4513 21.2613 15C21.2613 11.5487 18.4537 8.74125 15.0025 8.74125C11.5512 8.74125 8.74375 11.5487 8.74375 15ZM13.75 23.75H16.25V27.5H13.75V23.75ZM13.75 2.5H16.25V6.25H13.75V2.5ZM2.5 13.75H6.25V16.25H2.5V13.75ZM23.75 13.75H27.5V16.25H23.75V13.75ZM7.04625 24.7225L5.27875 22.955L7.93 20.3037L9.6975 22.0712L7.04625 24.7225ZM20.3025 7.93L22.955 5.2775L24.7225 7.045L22.07 9.6975L20.3025 7.93ZM7.93 9.69875L5.27875 7.04625L7.0475 5.27875L9.6975 7.93125L7.93 9.69875ZM24.7225 22.955L22.955 24.7225L20.3025 22.07L22.07 20.3025L24.7225 22.955Z" fill="black"/>
</svg>
