<svg width="30" height="30" viewBox="0 0 30 30" fill="none" xmlns="http://www.w3.org/2000/svg">
<path d="M8.4375 3.75V14.5022C6.79688 15.6919 5.625 17.5087 5.625 19.6875C5.625 23.3016 8.57344 26.25 12.1875 26.25C15.8016 26.25 18.75 23.3016 18.75 19.6875C18.75 17.5087 17.5781 15.6919 15.9375 14.5022V13.125H17.8125V11.25H15.9375V9.375H17.8125V7.5H15.9375V5.625H17.8125V3.75H8.4375ZM22.9688 3.75C21.1594 3.75 19.6875 5.22188 19.6875 7.03125C19.6875 8.84062 21.1594 10.3125 22.9688 10.3125C24.7781 10.3125 26.25 8.84062 26.25 7.03125C26.25 5.22188 24.7781 3.75 22.9688 3.75ZM10.3125 5.625H14.0625V15.3806L14.5312 15.645C15.9338 16.4578 16.875 17.9513 16.875 19.6875C16.875 22.2872 14.7872 24.375 12.1875 24.375C9.58781 24.375 7.5 22.2872 7.5 19.6875C7.5 17.9513 8.44125 16.4578 9.84375 15.6441L10.3125 15.3816V5.625ZM22.9688 5.625C23.7441 5.625 24.375 6.25594 24.375 7.03125C24.375 7.80656 23.7441 8.4375 22.9688 8.4375C22.1934 8.4375 21.5625 7.80656 21.5625 7.03125C21.5625 6.25594 22.1934 5.625 22.9688 5.625ZM11.25 15V17.0512C10.1625 17.4394 9.375 18.4697 9.375 19.6894C9.39394 20.4227 9.69856 21.1197 10.2239 21.6317C10.7493 22.1437 11.4539 22.4302 12.1875 22.4302C12.9211 22.4302 13.6257 22.1437 14.1511 21.6317C14.6764 21.1197 14.9811 20.4227 15 19.6894C15 18.4697 14.2125 17.4394 13.125 17.0512V15H11.25Z" fill="black"/>
</svg>
